<?xml version="1.0" encoding="UTF-8"?>
<svg width="1306px" height="145px" viewBox="0 0 1306 145" version="1.1" xmlns="http://www.w3.org/2000/svg" xmlns:xlink="http://www.w3.org/1999/xlink">
    <!-- Generator: Sketch 54.1 (76490) - https://sketchapp.com -->
    <title>Group 2</title>
    <desc>Created with Sketch.</desc>
    <g id="Page-1" stroke="none" stroke-width="1" fill="none" fill-rule="evenodd">
        <g id="Group-2" transform="translate(-617.000000, -482.000000)">
            <g id="logo">
                <g id="Group" transform="translate(617.000000, 482.000000)">
                    <g>
                        <g id="XMLID_2_" fill="#EC0928">
                            <circle id="Oval" cx="72.55" cy="72.33" r="72.03"></circle>
                        </g>
                        <path d="M112.68,97.2 C112.68,100.59 109.84,103.31 106.42,103.13 C103.21,102.96 100.8,100.08 100.8,96.86 L100.8,81.43 C100.8,79.69 99.39,78.27 97.64,78.27 L81.66,78.27 C79.92,78.27 78.5,79.68 78.5,81.43 L78.5,100.65 C78.5,104.04 75.66,106.76 72.24,106.58 C69.03,106.41 66.62,103.53 66.62,100.31 L66.62,81.42 C66.62,79.68 65.21,78.26 63.46,78.26 L47.48,78.26 C45.74,78.26 44.32,79.67 44.32,81.42 L44.32,97.18 C44.32,100.57 41.48,103.29 38.06,103.11 C34.85,102.94 32.44,100.06 32.44,96.84 L32.44,47.44 C32.44,44.05 35.27,41.33 38.7,41.51 C41.91,41.68 44.32,44.56 44.32,47.78 L44.32,63.21 C44.32,64.95 45.73,66.37 47.48,66.37 L63.46,66.37 C65.2,66.37 66.62,64.96 66.62,63.21 L66.62,44 C66.62,40.61 69.46,37.89 72.88,38.07 C76.09,38.24 78.5,41.12 78.5,44.34 L78.5,63.23 C78.5,64.97 79.91,66.39 81.66,66.39 L97.64,66.39 C99.38,66.39 100.8,64.98 100.8,63.23 L100.8,47.8 C100.8,44.58 103.21,41.7 106.42,41.53 C109.85,41.35 112.68,44.08 112.68,47.46 L112.68,97.2 Z" id="Path" fill="#FFFFFF"></path>
                    </g>
                    <g transform="translate(167.000000, 19.000000)" fill="#171717" fill-rule="nonzero">
                        <g>
                            <g>
                                <path d="M406.8,4.91 L397.92,4.91 C396.18,4.91 394.76,6.32 394.76,8.07 L394.76,23.93 L394.76,38.54 L394.76,63.04 C394.76,78.18 401.28,84.57 420.3,83.11 C421.96,82.98 423.26,81.62 423.26,79.95 L423.26,72.35 C423.26,70.56 421.77,69.14 419.98,69.19 C413.39,69.37 409.95,68.55 409.95,63.04 L409.95,36.7 L420.1,36.7 C421.84,36.7 423.26,35.29 423.26,33.54 L423.26,25.25 C423.26,23.51 421.85,22.09 420.1,22.09 L409.95,22.09 L409.95,8.07 C409.96,6.33 408.54,4.91 406.8,4.91 Z" id="Path"></path>
                                <path d="M355.14,21.53 C337.82,21.53 324.04,35.08 324.04,52.63 C324.04,70.18 337.82,83.73 355.14,83.73 C372.46,83.73 386.36,70.18 386.36,52.63 C386.36,35.08 372.46,21.53 355.14,21.53 Z M355.14,68.88 C346.19,68.88 339.24,62.17 339.24,52.62 C339.24,43.08 346.19,36.36 355.14,36.36 C364.21,36.36 371.16,43.07 371.16,52.62 C371.16,62.17 364.21,68.88 355.14,68.88 Z" id="Shape"></path>
                                <path d="M459.54,21.53 C442.22,21.53 428.44,35.08 428.44,52.63 C428.44,70.18 442.22,83.73 459.54,83.73 C476.86,83.73 490.76,70.18 490.76,52.63 C490.76,35.08 476.86,21.53 459.54,21.53 Z M459.54,68.88 C450.59,68.88 443.64,62.17 443.64,52.62 C443.64,43.08 450.59,36.36 459.54,36.36 C468.61,36.36 475.56,43.07 475.56,52.62 C475.56,62.17 468.61,68.88 459.54,68.88 Z" id="Shape"></path>
                                <path d="M70.7,57.96 C70.7,63.7 65.75,68.31 59.9,67.74 C54.8,67.24 51.06,62.65 51.06,57.52 L51.06,25.25 C51.06,23.51 49.65,22.09 47.9,22.09 L38.61,22.09 C36.87,22.09 35.45,23.5 35.45,25.25 L35.45,57.52 C35.45,62.65 31.71,67.24 26.61,67.74 C20.75,68.31 15.81,63.7 15.81,57.96 L15.81,25.25 C15.81,23.51 14.4,22.09 12.65,22.09 L3.36,22.09 C1.62,22.09 0.2,23.5 0.2,25.25 L0.2,57.16 C0.2,70.56 10.22,82.25 23.58,83.31 C31.23,83.92 38.23,81.1 43.26,76.25 C48.29,81.1 55.29,83.92 62.94,83.31 C76.29,82.25 86.32,70.55 86.32,57.16 L86.32,25.25 C86.32,23.51 84.91,22.09 83.16,22.09 L73.87,22.09 C72.13,22.09 70.71,23.5 70.71,25.25 L70.71,57.96 L70.7,57.96 Z" id="Path"></path>
                                <path d="M293.78,22.09 C286.13,21.48 279.13,24.3 274.1,29.15 C269.07,24.3 262.07,21.48 254.42,22.09 C241.07,23.15 231.04,34.85 231.04,48.24 L231.04,80.15 C231.04,81.89 232.45,83.31 234.2,83.31 L243.49,83.31 C245.23,83.31 246.65,81.9 246.65,80.15 L246.65,47.88 C246.65,42.75 250.39,38.17 255.49,37.67 C261.35,37.1 266.3,41.7 266.3,47.45 L266.3,80.16 C266.3,81.9 267.71,83.32 269.46,83.32 L278.75,83.32 C280.49,83.32 281.91,81.91 281.91,80.16 L281.91,47.89 C281.91,42.76 285.65,38.17 290.75,37.67 C296.61,37.1 301.55,41.71 301.55,47.45 L301.55,80.16 C301.55,81.9 302.96,83.32 304.71,83.32 L314,83.32 C315.74,83.32 317.16,81.91 317.16,80.16 L317.16,48.25 C317.16,34.85 307.14,23.15 293.78,22.09 Z" id="Path"></path>
                                <path d="M553.87,39.91 C553.87,36.73 556.93,35.08 560.7,35.08 C563.76,35.08 566.29,36.19 568.14,38.16 C569.04,39.11 570.62,39.48 571.77,38.86 L579.28,34.84 C581.1,33.87 581.48,31.46 580.12,29.91 C575.35,24.45 568.47,21.53 560.71,21.53 C548.58,21.53 538.33,28.24 538.33,40.26 C538.33,60.99 568.72,56.28 568.72,64.88 C568.72,68.3 565.42,69.94 560.59,69.94 C556.16,69.94 552.82,68.33 550.73,65.47 C549.85,64.26 548.18,63.76 546.86,64.46 L539.03,68.65 C537.37,69.54 536.79,71.59 537.86,73.14 C542.55,80 550.42,83.71 560.6,83.71 C573.2,83.71 584.28,77.59 584.28,64.86 C584.26,43.2 553.87,48.62 553.87,39.91 Z" id="Path"></path>
                                <path d="M193.35,21.53 C187.51,21.53 182.09,23.1 177.45,25.81 L177.45,3.22 C177.45,1.48 176.04,0.06 174.29,0.06 L165.41,0.06 C163.67,0.06 162.25,1.47 162.25,3.22 L162.25,52.82 L162.26,52.82 C162.37,70.27 176.1,83.71 193.35,83.71 C210.67,83.71 224.57,70.16 224.57,52.61 C224.57,35.08 210.67,21.53 193.35,21.53 Z M193.35,68.88 C184.41,68.88 177.48,62.19 177.45,52.67 L177.45,52.58 C177.47,43.06 184.41,36.37 193.35,36.37 C202.42,36.37 209.37,43.08 209.37,52.63 C209.38,62.17 202.43,68.88 193.35,68.88 Z" id="Shape"></path>
                            </g>
                            <path d="M511.29,83.31 L502,83.31 C500.26,83.31 498.84,81.9 498.84,80.15 L498.84,52.29 C498.84,35.61 512.36,22.09 529.04,22.09 L530.32,22.09 C532.06,22.09 533.48,23.5 533.48,25.25 L533.48,34.54 C533.48,36.28 532.07,37.7 530.32,37.7 L529.03,37.7 C520.97,37.7 514.44,44.23 514.44,52.29 L514.44,80.15 C514.45,81.9 513.04,83.31 511.29,83.31 Z" id="Path"></path>
                        </g>
                        <path d="M139.44,63.49 C138.18,62.82 136.65,63.09 135.66,64.12 C132.79,67.11 128.75,68.88 124.12,68.88 C117.73,68.88 112.37,65.45 109.83,60.02 C109.12,58.52 110.17,56.78 111.83,56.78 L151.17,56.78 C153.46,56.78 155.33,54.91 155.33,52.62 L155.33,52.62 C155.33,35.07 141.43,21.52 124.11,21.52 C106.79,21.52 93.01,35.07 93.01,52.62 C93.01,70.17 106.79,83.72 124.11,83.72 C133.91,83.72 142.59,79.37 148.3,72.42 C149.54,70.91 149.02,68.62 147.29,67.69 L139.44,63.49 Z M124.12,36.37 C130.47,36.37 135.76,39.66 138.38,44.9 L109.98,44.9 C112.59,39.66 117.86,36.37 124.12,36.37 Z" id="Shape"></path>
                    </g>
                </g>
            </g>
            <circle id="Oval" fill="#2E2D37" fill-rule="nonzero" cx="1488.5" cy="553.5" r="10.5"></circle>
            <g id="design" transform="translate(1615.000000, 512.000000)" fill-rule="nonzero">
                <g id="Group">
                    <g id="path-1-link" fill="#000000">
                        <path d="M56.2571224,39.5590146 C56.2571224,46.1575548 54.9121022,51.9080656 52.2220216,56.8107195 C49.531941,61.7133734 45.6051005,65.5213525 40.4413826,68.2347707 C35.2776645,70.948189 29.1091239,72.304878 21.9355755,72.304878 L0.0439942708,72.304878 L0.0439942708,6.9981561 L21.9355755,6.9981561 C29.1091239,6.9981561 35.2776645,8.33942805 40.4413826,11.0220122 C45.6051005,13.7045963 49.531941,17.4817415 52.2220216,22.353561 C54.9121022,27.2253803 56.2571224,32.9604744 56.2571224,39.5590146 Z M21.1007271,62.7771268 C28.9545257,62.7771268 34.9839264,60.7420937 39.1891099,56.6719659 C43.3942934,52.601838 45.4968536,46.897578 45.4968536,39.5590146 C45.4968536,32.2204513 43.3942934,26.5161913 39.1891099,22.4460634 C34.9839264,18.3759357 28.9545257,16.3409024 21.1007271,16.3409024 L10.6187411,16.3409024 L10.6187411,62.7771268 L21.1007271,62.7771268 Z M114.41823,44.3691415 C114.41823,46.0958624 114.29455,47.6067201 114.047186,48.901761 L74.716549,48.901761 C74.9020719,54.1435921 76.3553121,58.0286554 79.076313,60.5570683 C81.7973139,63.0854811 85.1675945,64.3496683 89.1872552,64.3496683 C92.7121884,64.3496683 95.6959686,63.4554868 98.1386857,61.6670976 C100.581403,59.8787083 102.081023,57.5045027 102.637591,54.5444098 L113.954426,54.5444098 C113.274175,58.1211887 111.851855,61.2970739 109.687422,64.072161 C107.52299,66.847248 104.70927,69.0210338 101.246177,70.5935829 C97.7830846,72.1661321 93.9180841,72.9523951 89.6510599,72.9523951 C84.7037852,72.9523951 80.3286047,71.9040444 76.5253872,69.8073122 C72.7221697,67.71058 69.7383895,64.6888634 67.5739568,60.7420732 C65.4095241,56.7952829 64.327324,52.1393731 64.327324,46.7742049 C64.327324,41.470705 65.4095241,36.8456293 67.5739568,32.898839 C69.7383895,28.9520488 72.7221697,25.9303324 76.5253872,23.8336 C80.3286047,21.7368676 84.7037852,20.6885171 89.6510599,20.6885171 C94.6601758,20.6885171 99.0353562,21.7214506 102.776733,23.7873488 C106.518109,25.8532469 109.39367,28.6899601 111.4035,32.2975732 C113.41333,35.9051863 114.41823,39.9290023 114.41823,44.3691415 Z M103.750722,44.0916341 C103.874404,40.7615299 103.302384,37.9710674 102.034645,35.7201634 C100.766906,33.4692594 99.0353856,31.8042325 96.8400326,30.7250317 C94.6446795,29.6458314 92.248379,29.106239 89.6510599,29.106239 C85.5077174,29.106239 82.0446769,30.3704262 79.2618349,32.898839 C76.4789929,35.4272519 74.9639125,39.1581461 74.716549,44.0916341 L103.750722,44.0916341 Z M141.411663,20.6885171 C147.410234,20.6885171 152.218294,22.2147921 155.835989,25.2673878 C159.453683,28.3199837 161.664464,32.405467 162.468396,37.523961 L152.450215,37.523961 C152.017328,34.7488739 150.826908,32.5134204 148.878918,30.8175341 C146.930929,29.1216474 144.349109,28.2737171 141.13338,28.2737171 C138.47422,28.2737171 136.41804,28.9058109 134.964778,30.1700171 C133.511516,31.4342232 132.784896,33.1455014 132.784896,35.3039024 C132.784896,36.9072863 133.310536,38.2023071 134.361832,39.1890049 C135.413128,40.1757027 136.727228,40.9465486 138.304172,41.5015659 C139.881115,42.0565831 142.122816,42.6732598 145.02934,43.3516146 C148.863477,44.2149748 151.970938,45.1091564 154.351814,46.0341854 C156.73269,46.9592144 158.77341,48.4238219 160.474036,50.4280512 C162.174662,52.4322805 163.024961,55.1610752 163.024961,58.6145171 C163.024961,62.8696503 161.401662,66.3230403 158.155012,68.9747902 C154.908363,71.6265402 150.533183,72.9523951 145.02934,72.9523951 C138.659723,72.9523951 133.511543,71.472371 129.584643,68.512278 C125.657744,65.5521851 123.292364,61.4204511 122.488432,56.1169512 L132.784896,56.1169512 C133.094101,58.8920383 134.330901,61.1429083 136.495333,62.8696293 C138.659766,64.5963502 141.504406,65.4596976 145.02934,65.4596976 C147.564818,65.4596976 149.559158,64.7967701 151.01242,63.4708951 C152.465682,62.1450201 153.192302,60.4645761 153.192302,58.4295122 C153.192302,56.641123 152.635742,55.2227661 151.522605,54.1744 C150.409468,53.1260339 149.018068,52.3089372 147.348363,51.7230854 C145.678658,51.1372335 143.390577,50.5359738 140.484054,49.9192878 C136.773598,49.0559276 133.758898,48.1925797 131.439862,47.3292195 C129.120827,46.4658593 127.141947,45.0629195 125.503162,43.1203585 C123.864377,41.1777976 123.044997,38.5415042 123.044997,35.2114 C123.044997,30.8945979 124.668298,27.3949573 127.914947,24.7123732 C131.161596,22.029789 135.660456,20.6885171 141.411663,20.6885171 Z M172.115533,6.5356439 C172.115533,4.74725447 172.733933,3.26723025 173.970752,2.09552683 C175.207571,0.92382341 176.846331,0.337980488 178.887082,0.337980488 C180.927833,0.337980488 182.582053,0.92382341 183.849792,2.09552683 C185.117531,3.26723025 185.751391,4.74725447 185.751391,6.5356439 C185.751391,8.32403333 185.117531,9.77322372 183.849792,10.8832585 C182.582053,11.9932934 180.927833,12.5483024 178.887082,12.5483024 C176.846331,12.5483024 175.207571,11.9932934 173.970752,10.8832585 C172.733933,9.77322372 172.115533,8.32403333 172.115533,6.5356439 Z M184.174455,21.3360341 L184.174455,72.304878 L173.599708,72.304878 L173.599708,21.3360341 L184.174455,21.3360341 Z M217.475632,20.6885171 C222.113702,20.6885171 226.071462,21.8293691 229.349032,24.1111073 C232.626601,26.3928455 234.945602,29.4145615 236.306102,33.1763463 L236.306102,21.3360341 L246.880849,21.3360341 L246.880849,72.8598927 C246.880849,77.6083749 245.906869,81.8171937 243.958879,85.4864756 C242.01089,89.1557575 239.212629,92.0387214 235.564015,94.1354537 C231.9154,96.2321859 227.586599,97.2805366 222.577483,97.2805366 C215.403935,97.2805366 209.606434,95.5846755 205.184808,92.1929024 C200.763181,88.8011294 197.995841,84.2068873 196.882704,78.410039 L207.36469,78.410039 C208.230462,81.4318003 209.900143,83.7905893 212.37378,85.4864756 C214.847418,87.1823624 218.001258,88.0302927 221.835396,88.0302927 C226.040579,88.0302927 229.50362,86.7352714 232.224621,84.1451902 C234.945622,81.5551091 236.306102,77.7933808 236.306102,72.8598927 L236.306102,60.4645659 C234.945602,64.2263507 232.626601,67.2480667 229.349032,69.5298049 C226.071462,71.811543 222.113702,72.9523951 217.475632,72.9523951 C213.023085,72.9523951 209.049864,71.9040444 205.555851,69.8073122 C202.061838,67.71058 199.325418,64.6888634 197.346508,60.7420732 C195.367599,56.7952829 194.378158,52.1393731 194.378158,46.7742049 C194.378158,41.470705 195.367599,36.8456293 197.346508,32.898839 C199.325418,28.9520488 202.061838,25.9303324 205.555851,23.8336 C209.049864,21.7368676 213.023085,20.6885171 217.475632,20.6885171 Z M220.722265,29.938761 C216.022353,29.938761 212.265573,31.4342022 209.451811,34.4251293 C206.638048,37.4160564 205.231188,41.5323738 205.231188,46.7742049 C205.231188,52.016036 206.638048,56.1323534 209.451811,59.1232805 C212.265573,62.1142076 216.022353,63.6096488 220.722265,63.6096488 C223.69063,63.6096488 226.34975,62.9158872 228.699705,61.5283439 C231.049661,60.1408001 232.904861,58.1828519 234.265361,55.654439 C235.625862,53.1260262 236.306102,50.1659779 236.306102,46.7742049 C236.306102,43.4441006 235.625862,40.4994689 234.265361,37.940222 C232.904861,35.380975 231.049661,33.4076091 228.699705,32.0200659 C226.34975,30.6325226 223.69063,29.938761 220.722265,29.938761 Z M288.159466,20.5035122 C294.096196,20.5035122 298.857876,22.4152102 302.444651,26.2386634 C306.031425,30.0621166 307.824785,35.519706 307.824785,42.6115951 L307.824785,72.304878 L297.250038,72.304878 L297.250038,43.7216244 C297.250038,39.1581481 296.075078,35.6276733 293.725122,33.1300951 C291.375167,30.6325169 288.159487,29.3837463 284.077985,29.3837463 C279.872801,29.3837463 276.502521,30.7250183 273.967043,33.4076024 C271.431564,36.0901865 270.163844,40.0215011 270.163844,45.2016634 L270.163844,72.304878 L259.589097,72.304878 L259.589097,21.3360341 L270.163844,21.3360341 L270.163844,32.5288293 C271.524345,28.7053761 273.812425,25.7453276 277.028154,23.6485951 C280.243882,21.5518627 283.954283,20.5035122 288.159466,20.5035122 Z" id="path-1"></path>
                    </g>
                    <g id="path-1-link" fill="#2E2D37">
                        <path d="M56.2571224,39.5590146 C56.2571224,46.1575548 54.9121022,51.9080656 52.2220216,56.8107195 C49.531941,61.7133734 45.6051005,65.5213525 40.4413826,68.2347707 C35.2776645,70.948189 29.1091239,72.304878 21.9355755,72.304878 L0.0439942708,72.304878 L0.0439942708,6.9981561 L21.9355755,6.9981561 C29.1091239,6.9981561 35.2776645,8.33942805 40.4413826,11.0220122 C45.6051005,13.7045963 49.531941,17.4817415 52.2220216,22.353561 C54.9121022,27.2253803 56.2571224,32.9604744 56.2571224,39.5590146 Z M21.1007271,62.7771268 C28.9545257,62.7771268 34.9839264,60.7420937 39.1891099,56.6719659 C43.3942934,52.601838 45.4968536,46.897578 45.4968536,39.5590146 C45.4968536,32.2204513 43.3942934,26.5161913 39.1891099,22.4460634 C34.9839264,18.3759357 28.9545257,16.3409024 21.1007271,16.3409024 L10.6187411,16.3409024 L10.6187411,62.7771268 L21.1007271,62.7771268 Z M114.41823,44.3691415 C114.41823,46.0958624 114.29455,47.6067201 114.047186,48.901761 L74.716549,48.901761 C74.9020719,54.1435921 76.3553121,58.0286554 79.076313,60.5570683 C81.7973139,63.0854811 85.1675945,64.3496683 89.1872552,64.3496683 C92.7121884,64.3496683 95.6959686,63.4554868 98.1386857,61.6670976 C100.581403,59.8787083 102.081023,57.5045027 102.637591,54.5444098 L113.954426,54.5444098 C113.274175,58.1211887 111.851855,61.2970739 109.687422,64.072161 C107.52299,66.847248 104.70927,69.0210338 101.246177,70.5935829 C97.7830846,72.1661321 93.9180841,72.9523951 89.6510599,72.9523951 C84.7037852,72.9523951 80.3286047,71.9040444 76.5253872,69.8073122 C72.7221697,67.71058 69.7383895,64.6888634 67.5739568,60.7420732 C65.4095241,56.7952829 64.327324,52.1393731 64.327324,46.7742049 C64.327324,41.470705 65.4095241,36.8456293 67.5739568,32.898839 C69.7383895,28.9520488 72.7221697,25.9303324 76.5253872,23.8336 C80.3286047,21.7368676 84.7037852,20.6885171 89.6510599,20.6885171 C94.6601758,20.6885171 99.0353562,21.7214506 102.776733,23.7873488 C106.518109,25.8532469 109.39367,28.6899601 111.4035,32.2975732 C113.41333,35.9051863 114.41823,39.9290023 114.41823,44.3691415 Z M103.750722,44.0916341 C103.874404,40.7615299 103.302384,37.9710674 102.034645,35.7201634 C100.766906,33.4692594 99.0353856,31.8042325 96.8400326,30.7250317 C94.6446795,29.6458314 92.248379,29.106239 89.6510599,29.106239 C85.5077174,29.106239 82.0446769,30.3704262 79.2618349,32.898839 C76.4789929,35.4272519 74.9639125,39.1581461 74.716549,44.0916341 L103.750722,44.0916341 Z M141.411663,20.6885171 C147.410234,20.6885171 152.218294,22.2147921 155.835989,25.2673878 C159.453683,28.3199837 161.664464,32.405467 162.468396,37.523961 L152.450215,37.523961 C152.017328,34.7488739 150.826908,32.5134204 148.878918,30.8175341 C146.930929,29.1216474 144.349109,28.2737171 141.13338,28.2737171 C138.47422,28.2737171 136.41804,28.9058109 134.964778,30.1700171 C133.511516,31.4342232 132.784896,33.1455014 132.784896,35.3039024 C132.784896,36.9072863 133.310536,38.2023071 134.361832,39.1890049 C135.413128,40.1757027 136.727228,40.9465486 138.304172,41.5015659 C139.881115,42.0565831 142.122816,42.6732598 145.02934,43.3516146 C148.863477,44.2149748 151.970938,45.1091564 154.351814,46.0341854 C156.73269,46.9592144 158.77341,48.4238219 160.474036,50.4280512 C162.174662,52.4322805 163.024961,55.1610752 163.024961,58.6145171 C163.024961,62.8696503 161.401662,66.3230403 158.155012,68.9747902 C154.908363,71.6265402 150.533183,72.9523951 145.02934,72.9523951 C138.659723,72.9523951 133.511543,71.472371 129.584643,68.512278 C125.657744,65.5521851 123.292364,61.4204511 122.488432,56.1169512 L132.784896,56.1169512 C133.094101,58.8920383 134.330901,61.1429083 136.495333,62.8696293 C138.659766,64.5963502 141.504406,65.4596976 145.02934,65.4596976 C147.564818,65.4596976 149.559158,64.7967701 151.01242,63.4708951 C152.465682,62.1450201 153.192302,60.4645761 153.192302,58.4295122 C153.192302,56.641123 152.635742,55.2227661 151.522605,54.1744 C150.409468,53.1260339 149.018068,52.3089372 147.348363,51.7230854 C145.678658,51.1372335 143.390577,50.5359738 140.484054,49.9192878 C136.773598,49.0559276 133.758898,48.1925797 131.439862,47.3292195 C129.120827,46.4658593 127.141947,45.0629195 125.503162,43.1203585 C123.864377,41.1777976 123.044997,38.5415042 123.044997,35.2114 C123.044997,30.8945979 124.668298,27.3949573 127.914947,24.7123732 C131.161596,22.029789 135.660456,20.6885171 141.411663,20.6885171 Z M172.115533,6.5356439 C172.115533,4.74725447 172.733933,3.26723025 173.970752,2.09552683 C175.207571,0.92382341 176.846331,0.337980488 178.887082,0.337980488 C180.927833,0.337980488 182.582053,0.92382341 183.849792,2.09552683 C185.117531,3.26723025 185.751391,4.74725447 185.751391,6.5356439 C185.751391,8.32403333 185.117531,9.77322372 183.849792,10.8832585 C182.582053,11.9932934 180.927833,12.5483024 178.887082,12.5483024 C176.846331,12.5483024 175.207571,11.9932934 173.970752,10.8832585 C172.733933,9.77322372 172.115533,8.32403333 172.115533,6.5356439 Z M184.174455,21.3360341 L184.174455,72.304878 L173.599708,72.304878 L173.599708,21.3360341 L184.174455,21.3360341 Z M217.475632,20.6885171 C222.113702,20.6885171 226.071462,21.8293691 229.349032,24.1111073 C232.626601,26.3928455 234.945602,29.4145615 236.306102,33.1763463 L236.306102,21.3360341 L246.880849,21.3360341 L246.880849,72.8598927 C246.880849,77.6083749 245.906869,81.8171937 243.958879,85.4864756 C242.01089,89.1557575 239.212629,92.0387214 235.564015,94.1354537 C231.9154,96.2321859 227.586599,97.2805366 222.577483,97.2805366 C215.403935,97.2805366 209.606434,95.5846755 205.184808,92.1929024 C200.763181,88.8011294 197.995841,84.2068873 196.882704,78.410039 L207.36469,78.410039 C208.230462,81.4318003 209.900143,83.7905893 212.37378,85.4864756 C214.847418,87.1823624 218.001258,88.0302927 221.835396,88.0302927 C226.040579,88.0302927 229.50362,86.7352714 232.224621,84.1451902 C234.945622,81.5551091 236.306102,77.7933808 236.306102,72.8598927 L236.306102,60.4645659 C234.945602,64.2263507 232.626601,67.2480667 229.349032,69.5298049 C226.071462,71.811543 222.113702,72.9523951 217.475632,72.9523951 C213.023085,72.9523951 209.049864,71.9040444 205.555851,69.8073122 C202.061838,67.71058 199.325418,64.6888634 197.346508,60.7420732 C195.367599,56.7952829 194.378158,52.1393731 194.378158,46.7742049 C194.378158,41.470705 195.367599,36.8456293 197.346508,32.898839 C199.325418,28.9520488 202.061838,25.9303324 205.555851,23.8336 C209.049864,21.7368676 213.023085,20.6885171 217.475632,20.6885171 Z M220.722265,29.938761 C216.022353,29.938761 212.265573,31.4342022 209.451811,34.4251293 C206.638048,37.4160564 205.231188,41.5323738 205.231188,46.7742049 C205.231188,52.016036 206.638048,56.1323534 209.451811,59.1232805 C212.265573,62.1142076 216.022353,63.6096488 220.722265,63.6096488 C223.69063,63.6096488 226.34975,62.9158872 228.699705,61.5283439 C231.049661,60.1408001 232.904861,58.1828519 234.265361,55.654439 C235.625862,53.1260262 236.306102,50.1659779 236.306102,46.7742049 C236.306102,43.4441006 235.625862,40.4994689 234.265361,37.940222 C232.904861,35.380975 231.049661,33.4076091 228.699705,32.0200659 C226.34975,30.6325226 223.69063,29.938761 220.722265,29.938761 Z M288.159466,20.5035122 C294.096196,20.5035122 298.857876,22.4152102 302.444651,26.2386634 C306.031425,30.0621166 307.824785,35.519706 307.824785,42.6115951 L307.824785,72.304878 L297.250038,72.304878 L297.250038,43.7216244 C297.250038,39.1581481 296.075078,35.6276733 293.725122,33.1300951 C291.375167,30.6325169 288.159487,29.3837463 284.077985,29.3837463 C279.872801,29.3837463 276.502521,30.7250183 273.967043,33.4076024 C271.431564,36.0901865 270.163844,40.0215011 270.163844,45.2016634 L270.163844,72.304878 L259.589097,72.304878 L259.589097,21.3360341 L270.163844,21.3360341 L270.163844,32.5288293 C271.524345,28.7053761 273.812425,25.7453276 277.028154,23.6485951 C280.243882,21.5518627 283.954283,20.5035122 288.159466,20.5035122 Z" id="path-1"></path>
                    </g>
                </g>
            </g>
        </g>
    </g>
</svg>